<?xml version="1.0" standalone="no"?>
<!DOCTYPE svg PUBLIC "-//W3C//DTD SVG 20010904//EN"
 "http://www.w3.org/TR/2001/REC-SVG-20010904/DTD/svg10.dtd">
<svg version="1.0" xmlns="http://www.w3.org/2000/svg"
 width="16.000000pt" height="16.000000pt" viewBox="0 0 16.000000 16.000000"
 preserveAspectRatio="xMidYMid meet">
<metadata>
Created by potrace 1.11, written by Peter Selinger 2001-2013
</metadata>
<g transform="translate(0.000000,16.000000) scale(0.004000,-0.004000)"
fill="#000000" stroke="none">
<path d="M1795 3580 c-509 -58 -964 -357 -1219 -799 -41 -72 -83 -155 -92
-186 -2 -5 -19 -53 -38 -106 -19 -53 -37 -113 -40 -134 -4 -20 -8 -40 -10 -44
-4 -6 -7 -24 -25 -151 -13 -94 -6 -361 13 -460 27 -149 28 -152 89 -310 129
-338 367 -619 683 -806 176 -104 349 -165 594 -210 73 -13 355 -12 449 2 549
82 1003 417 1238 914 38 80 100 255 109 310 3 14 7 31 9 38 2 7 7 34 11 60 3
26 10 69 14 95 12 80 9 295 -6 401 -34 241 -117 461 -251 669 -166 256 -430
477 -708 592 -49 21 -99 41 -110 46 -21 9 -158 47 -197 54 -13 3 -36 7 -53 10
-16 3 -43 7 -60 10 -54 10 -329 14 -400 5z"/>
</g>
</svg>
